<?xml version="1.0" standalone="no"?>
<!DOCTYPE svg PUBLIC "-//W3C//DTD SVG 20010904//EN"
 "http://www.w3.org/TR/2001/REC-SVG-20010904/DTD/svg10.dtd">
<svg version="1.0" xmlns="http://www.w3.org/2000/svg"
 width="256.000000pt" height="256.000000pt" viewBox="0 0 256.000000 256.000000"
 preserveAspectRatio="xMidYMid meet">
<metadata>
Created by potrace 1.11, written by Peter Selinger 2001-2013
</metadata>
<g transform="translate(0.000000,256.000000) scale(0.100000,-0.100000)"
fill="#000000" stroke="none">
<path d="M1071 2489 c-392 -82 -706 -382 -792 -757 -6 -26 -13 -56 -15 -67
-13 -52 -16 -240 -5 -316 21 -142 100 -349 154 -403 l22 -22 540 1 540 0 55
26 c128 60 199 180 187 320 -10 119 -76 213 -184 265 -57 27 -62 27 -263 29
-156 1 -211 5 -228 16 -28 18 -53 69 -47 100 6 33 59 79 93 80 93 3 366 0 398
-5 253 -40 445 -262 446 -517 1 -132 -35 -235 -116 -335 -71 -88 -151 -140
-265 -172 -66 -19 -102 -21 -459 -22 -366 -1 -388 -2 -406 -20 -12 -11 -19
-32 -18 -51 1 -30 30 -63 272 -302 259 -258 272 -269 301 -263 24 5 118 93
403 376 204 204 390 396 413 428 89 119 171 313 191 445 4 29 7 113 6 187 -1
152 -20 247 -77 379 l-32 76 -575 0 -575 0 -67 -33 c-236 -116 -237 -447 -2
-563 l67 -33 206 -1 c189 -1 209 -3 234 -20 56 -41 51 -136 -9 -164 -35 -15
-412 -16 -484 0 -194 42 -358 208 -394 396 -51 275 116 539 385 609 54 15 129
18 489 19 234 2 432 3 441 4 21 1 43 53 34 80 -9 30 -164 129 -269 172 -187
77 -402 98 -595 58z"/>
</g>
</svg>
